<svg width="40" height="40" viewBox="0 0 40 40" fill="none" xmlns="http://www.w3.org/2000/svg">
<path d="M4.98333 12.3C4.78932 12.4935 4.63539 12.7234 4.53037 12.9765C4.42534 13.2296 4.37128 13.501 4.37128 13.775C4.37128 14.049 4.42534 14.3204 4.53037 14.5735C4.63539 14.8266 4.78932 15.0565 4.98333 15.25L18.8333 29.1C18.9875 29.2545 19.1707 29.3771 19.3723 29.4607C19.5739 29.5444 19.7901 29.5874 20.0083 29.5874C20.2266 29.5874 20.4428 29.5444 20.6444 29.4607C20.846 29.3771 21.0291 29.2545 21.1833 29.1L35.0333 15.25C35.85 14.4333 35.85 13.1167 35.0333 12.3C34.2167 11.4833 32.9 11.4833 32.0833 12.3L20 24.3667L7.91667 12.2833C7.11667 11.4833 5.78333 11.4833 4.98333 12.3Z" fill="white"/>
</svg>
